HIERARCHY
ROOT Hips
{
	OFFSET 0.000000 0.000000 0.000000
	CHANNELS 6 Xposition Yposition Zposition Zrotation Yrotation Xrotation 
	JOINT LHipJoint
	{
		OFFSET 0.000000 0.000000 0.000000
		CHANNELS 3 Zrotation Yrotation Xrotation
		JOINT LeftUpLeg
		{
			OFFSET 1.363060 -1.794630 0.839290
			CHANNELS 3 Zrotation Yrotation Xrotation
			JOINT LeftLeg
			{
				OFFSET 2.448110 -6.726130 0.000000
				CHANNELS 3 Zrotation Yrotation Xrotation
				JOINT LeftFoot
				{
					OFFSET 2.562200 -7.039590 0.000000
					CHANNELS 3 Zrotation Yrotation Xrotation
					JOINT LeftToeBase
					{
						OFFSET 0.157640 -0.433110 2.322550
						CHANNELS 3 Zrotation Yrotation Xrotation
						End Site
						{
							OFFSET 0.000000 0.000000 0.000000
						}
					}
				}
			}
		}
	}
	JOINT RHipJoint
	{
		OFFSET 0.000000 0.000000 0.000000
		CHANNELS 3 Zrotation Yrotation Xrotation
		JOINT RightUpLeg
		{
			OFFSET -1.305520 -1.794630 0.839290
			CHANNELS 3 Zrotation Yrotation Xrotation
			JOINT RightLeg
			{
				OFFSET -2.542530 -6.985550 0.000000
				CHANNELS 3 Zrotation Yrotation Xrotation
				JOINT RightFoot
				{
					OFFSET -2.568260 -7.056230 0.000000
					CHANNELS 3 Zrotation Yrotation Xrotation
					JOINT RightToeBase
					{
						OFFSET -0.164730 -0.452590 2.363150
						CHANNELS 3 Zrotation Yrotation Xrotation
						End Site
						{
							OFFSET 0.000000 0.000000 0.000000
						}
					}
				}
			}
		}
	}
	JOINT LowerBack
	{
		OFFSET 0.000000 0.000000 0.000000
		CHANNELS 3 Zrotation Yrotation Xrotation
		JOINT Spine
		{
			OFFSET 0.028270 2.035590 -0.193380
			CHANNELS 3 Zrotation Yrotation Xrotation
			JOINT Spine1
			{
				OFFSET 0.056720 2.048850 -0.042750
				CHANNELS 3 Zrotation Yrotation Xrotation
				JOINT Neck
				{
					OFFSET 0.000000 0.000000 0.000000
					CHANNELS 3 Zrotation Yrotation Xrotation
					JOINT Neck1
					{
						OFFSET -0.054170 1.746240 0.172020
						CHANNELS 3 Zrotation Yrotation Xrotation
						JOINT Head
						{
							OFFSET 0.104070 1.761360 -0.123970
							CHANNELS 3 Zrotation Yrotation Xrotation
							End Site
							{
								OFFSET 0.000000 0.000000 0.000000
							}
						}
					}
				}
				JOINT LeftShoulder
				{
					OFFSET 0.000000 0.000000 0.000000
					CHANNELS 3 Zrotation Yrotation Xrotation
					JOINT LeftArm
					{
						OFFSET 3.362410 1.200890 -0.311210
						CHANNELS 3 Zrotation Yrotation Xrotation
						JOINT LeftForeArm
						{
							OFFSET 4.983000 -0.000000 -0.000000
							CHANNELS 3 Zrotation Yrotation Xrotation
							JOINT LeftHand
							{
								OFFSET 3.483560 -0.000000 -0.000000
								CHANNELS 3 Zrotation Yrotation Xrotation
								JOINT LeftFingerBase
								{
									OFFSET 0.000000 0.000000 0.000000
									CHANNELS 3 Zrotation Yrotation Xrotation
									JOINT LeftHandIndex1
									{
										OFFSET 0.715260 -0.000000 -0.000000
										CHANNELS 3 Zrotation Yrotation Xrotation
										End Site
										{
											OFFSET 0.000000 0.000000 0.000000
										}
									}
								}
								JOINT LThumb
								{
									OFFSET 0.000000 0.000000 0.000000
									CHANNELS 3 Zrotation Yrotation Xrotation
									End Site
									{
										OFFSET 0.000000 0.000000 0.000000
									}
								}
							}
						}
					}
				}
				JOINT RightShoulder
				{
					OFFSET 0.000000 0.000000 0.000000
					CHANNELS 3 Zrotation Yrotation Xrotation
					JOINT RightArm
					{
						OFFSET -3.136600 1.374050 -0.404650
						CHANNELS 3 Zrotation Yrotation Xrotation
						JOINT RightForeArm
						{
							OFFSET -5.241900 -0.000000 -0.000000
							CHANNELS 3 Zrotation Yrotation Xrotation
							JOINT RightHand
							{
								OFFSET -3.444170 -0.000000 -0.000000
								CHANNELS 3 Zrotation Yrotation Xrotation
								JOINT RightFingerBase
								{
									OFFSET 0.000000 0.000000 0.000000
									CHANNELS 3 Zrotation Yrotation Xrotation
									JOINT RightHandIndex1
									{
										OFFSET -0.622530 -0.000000 -0.000000
										CHANNELS 3 Zrotation Yrotation Xrotation
										End Site
										{
											OFFSET 0.000000 0.000000 0.000000
										}
									}
								}
								JOINT RThumb
								{
									OFFSET 0.000000 0.000000 0.000000
									CHANNELS 3 Zrotation Yrotation Xrotation
									End Site
									{
										OFFSET 0.000000 0.000000 0.000000
									}
								}
							}
						}
					}
				}
			}
		}
	}
}
MOTION
Frames: 10
Frame Time: 0.033333
-0.100792 17.436851 -0.100792 -3.933792 -7.775792 5.457907 -2.749947 18.708120 3.482597 -14.485137 -5.313297 -15.297966 -7.243716 -8.760809 -26.153168 0.934975 14.744923 30.734514 0.000000 0.000000 0.000000 -1.482265 -22.316866 -12.184283 41.144199 8.999898 -0.729672 -12.920216 1.183597 30.695379 -2.364049 16.995455 -29.019475 0.000000 0.000000 0.000000 0.435661 1.319353 14.740182 3.483754 1.656576 -2.607411 2.018747 2.263757 -8.795941 -4.838488 0.689801 2.382953 4.261172 -0.055617 3.445453 0.000000 0.000000 0.000000 0.266685 14.534885 11.215613 -68.814128 -1.937664 19.361900 -11.074488 -81.334751 0.372639 2.421886 -14.867305 0.179908 2.479521 -14.862431 0.000000 0.000000 0.000000 0.000000 0.000000 0.000000 0.000000 7.310374 -17.783652 3.481487 50.255028 9.000579 4.998798 26.130549 26.317091 0.050580 0.436749 4.378992 0.025192 0.434584 4.379890 0.000000 0.000000 0.000000 0.000000 0.000000 0.000000 0.000000 
-0.089989 17.468015 0.058879 -3.732869 -7.759296 5.651922 -2.429559 18.779526 3.259812 -15.197597 -5.343760 -14.979023 -7.183731 -8.436337 -25.061126 0.661482 13.743924 28.670186 0.000000 0.000000 0.000000 -1.595722 -22.028066 -11.517019 40.141575 9.346197 -1.348905 -11.899758 0.803281 30.968082 -2.354566 17.132307 -29.627762 0.000000 0.000000 0.000000 0.413877 1.280483 14.357456 3.559492 1.594433 -2.528011 2.033057 2.192938 -8.917396 -5.109559 0.727316 2.603425 4.291705 -0.046983 3.323126 0.000000 0.000000 0.000000 0.069941 14.429921 11.296016 -68.613713 -1.752580 19.946645 -12.823959 -80.443708 0.382536 2.195868 -15.065169 0.184746 2.253134 -15.061568 0.000000 0.000000 0.000000 0.000000 0.000000 0.000000 0.000000 7.772920 -17.867978 3.251934 49.604678 8.983838 4.689969 25.698445 25.151751 0.046503 0.422535 4.204283 0.023165 0.420533 4.205118 0.000000 0.000000 0.000000 0.000000 0.000000 0.000000 0.000000 
-0.076936 17.500999 0.217958 -3.525777 -7.726764 5.850602 -2.144399 18.843625 3.021000 -15.882758 -5.383077 -14.697964 -7.132483 -8.079384 -23.886073 0.420015 12.738833 26.593054 0.000000 0.000000 0.000000 -1.671457 -21.706473 -10.827010 39.064698 9.700371 -2.017895 -10.870714 0.414467 31.205533 -2.331495 17.247035 -30.180356 0.000000 0.000000 0.000000 0.390721 1.234317 13.963515 3.643405 1.526734 -2.446492 2.043277 2.116107 -9.037417 -5.392511 0.767158 2.831146 4.327117 -0.037764 3.195550 0.000000 0.000000 0.000000 -0.129078 14.322293 11.374292 -68.413135 -1.587399 20.485950 -14.628546 -79.507820 0.392203 1.962279 -15.253147 0.189489 2.018915 -15.250841 0.000000 0.000000 0.000000 0.000000 0.000000 0.000000 0.000000 8.243519 -17.947073 3.022127 48.940070 8.958705 4.396826 25.261270 24.029041 0.042742 0.409315 4.037819 0.021294 0.407464 4.038597 0.000000 0.000000 0.000000 0.000000 0.000000 0.000000 0.000000 
-0.061684 17.535355 0.376044 -3.315272 -7.681323 6.050967 -1.894920 18.904605 2.771450 -16.535867 -5.431837 -14.458338 -7.090593 -7.690819 -22.635051 0.209430 11.737774 24.517759 0.000000 0.000000 0.000000 -1.708168 -21.356467 -10.117735 37.918655 10.054438 -2.727489 -9.836831 0.020723 31.401916 -2.296667 17.342938 -30.680428 0.000000 0.000000 0.000000 0.362330 1.176481 13.559298 3.741196 1.454754 -2.339980 2.011995 2.034486 -9.190877 -5.652837 0.804751 3.060098 4.376381 -0.029381 3.081671 0.000000 0.000000 0.000000 -0.427987 14.275145 11.509333 -68.256851 -1.479384 20.511631 -14.842695 -79.355220 0.393065 1.919046 -15.257872 0.189959 1.975144 -15.255803 0.000000 0.000000 0.000000 0.000000 0.000000 0.000000 0.000000 8.752990 -18.023609 2.786265 48.259382 8.911135 4.116387 24.831594 22.940454 0.039239 0.398819 3.878941 0.019551 0.397110 3.879666 -0.000000 0.000000 0.000000 0.000000 0.000000 0.000000 0.000000 
-0.044800 17.570675 0.532775 -3.100816 -7.623648 6.253050 -1.684280 18.963231 2.513665 -17.153619 -5.491554 -14.262809 -7.052604 -7.272820 -21.316472 0.029168 10.747278 22.459599 0.000000 0.000000 0.000000 -1.707979 -20.982751 -9.392857 36.707937 10.401836 -3.472464 -8.794807 -0.376957 31.554259 -2.250737 17.421357 -31.131684 0.000000 0.000000 0.000000 0.333806 1.111727 13.146713 3.848559 1.377886 -2.230894 1.973877 1.947807 -9.340481 -5.925455 0.845072 3.294307 4.432474 -0.020307 2.961840 0.000000 0.000000 0.000000 -0.732872 14.224976 11.646251 -68.096265 -1.373609 20.529977 -15.043478 -79.208808 0.393734 1.877941 -15.260867 0.190332 1.933513 -15.259019 0.000000 0.000000 0.000000 0.000000 0.000000 0.000000 0.000000 9.271739 -18.094102 2.549767 47.564430 8.856198 3.850472 24.399715 21.894865 0.036001 0.389172 3.727975 0.017940 0.387595 3.728651 0.000000 0.000000 0.000000 0.000000 0.000000 0.000000 0.000000 
-0.022604 17.608790 0.691633 -2.872694 -7.303090 6.479439 -1.529450 18.957406 2.162569 -17.751113 -5.619176 -14.135020 -7.090185 -6.795362 -19.705036 -0.128644 9.624578 20.303398 0.000000 0.000000 0.000000 -1.651624 -20.706672 -8.689633 35.509069 10.804994 -4.323401 -7.968859 -0.826050 31.908148 -2.177649 17.351181 -31.473602 0.000000 0.000000 0.000000 0.338718 1.039452 12.895003 3.497679 1.238131 -1.996300 1.816409 1.825680 -9.313090 -5.400404 0.760289 2.935128 4.297711 -0.035587 3.136436 0.000000 0.000000 0.000000 -0.597057 14.360481 11.482422 -68.228028 -1.670933 19.963150 -12.757968 -80.348386 0.382385 2.199327 -15.067487 0.184676 2.256553 -15.063862 0.000000 0.000000 0.000000 0.000000 0.000000 0.000000 0.000000 8.413198 -18.142639 2.946751 48.749469 8.851458 4.421713 25.337611 24.124055 0.043873 0.419887 4.058292 0.021859 0.418030 4.059088 0.000000 0.000000 0.000000 0.000000 0.000000 0.000000 0.000000 
0.001299 17.647093 0.849089 -2.646070 -6.973150 6.707731 -1.414395 18.957000 1.812315 -18.306806 -5.767664 -14.063550 -7.118585 -6.286437 -18.024761 -0.257507 8.527388 18.180905 0.000000 0.000000 0.000000 -1.565189 -20.421188 -7.981195 34.273094 11.180766 -5.186321 -7.154874 -1.270154 32.210011 -2.100261 17.271376 -31.771594 0.000000 0.000000 0.000000 0.348145 0.959360 12.640785 3.168731 1.098015 -1.771003 1.646431 1.701958 -9.270632 -4.902876 0.681048 2.592967 4.175257 -0.049757 3.303063 0.000000 0.000000 0.000000 -0.472119 14.488744 11.314496 -68.355955 -2.000674 19.315851 -10.527638 -81.437594 0.370100 2.514114 -14.854105 0.178586 2.572632 -14.848672 0.000000 0.000000 0.000000 0.000000 0.000000 0.000000 0.000000 7.580826 -18.162533 3.363326 49.890118 8.804444 5.074518 26.278054 26.591106 0.053426 0.455514 4.431857 0.026612 0.453327 4.432796 0.000000 0.000000 0.000000 0.000000 0.000000 0.000000 0.000000 
0.026092 17.685228 1.005128 -2.427177 -6.612746 6.921746 -1.333305 18.955052 1.471381 -18.815205 -5.938716 -14.037744 -7.130786 -5.753234 -16.280943 -0.361590 7.455043 16.103284 0.000000 0.000000 0.000000 -1.460760 -20.096116 -7.300926 33.005209 11.478459 -6.003689 -6.329458 -1.726071 32.429298 -2.012042 17.165849 -32.032817 0.000000 0.000000 0.000000 0.363298 0.859489 12.396942 2.866888 0.954321 -1.519617 1.421121 1.572132 -9.280807 -4.381762 0.600072 2.269344 4.071690 -0.065482 3.496354 0.000000 0.000000 0.000000 -0.488296 14.709976 11.201514 -68.568615 -2.519290 17.653721 -6.227312 -83.498661 0.343960 3.060891 -14.306579 0.165882 3.119211 -14.298021 0.000000 0.000000 0.000000 0.000000 0.000000 0.000000 0.000000 6.816449 -18.160164 3.792766 50.980718 8.687344 5.817491 27.219266 29.290512 0.065013 0.499309 4.851203 0.032376 0.496746 4.852315 0.000000 0.000000 0.000000 0.000000 0.000000 0.000000 0.000000 
0.051758 17.722888 1.159458 -2.212202 -6.249995 7.136152 -1.294043 18.959087 1.139376 -19.275380 -6.131912 -14.068933 -7.122457 -5.194881 -14.488364 -0.441505 6.419899 14.081603 0.000000 0.000000 0.000000 -1.328326 -19.767764 -6.620543 31.713652 11.742371 -6.818547 -5.511308 -2.173226 32.596352 -1.922402 17.056257 -32.258851 0.000000 0.000000 0.000000 0.384183 0.755314 12.149835 2.586268 0.813535 -1.280421 1.198804 1.443019 -9.286497 -3.898535 0.525526 1.979473 3.975793 -0.080141 3.680504 0.000000 0.000000 0.000000 -0.504758 14.921103 11.066190 -68.789588 -3.135349 15.811388 -2.268822 -85.372029 0.317016 3.541591 -13.709065 0.152861 3.598309 -13.697858 0.000000 0.000000 0.000000 0.000000 0.000000 0.000000 0.000000 6.093680 -18.124715 4.229602 52.008477 8.524981 6.650224 28.098318 32.186668 0.078915 0.546962 5.311045 0.039288 0.543986 5.312363 0.000000 0.000000 0.000000 0.000000 0.000000 0.000000 0.000000 
0.064025 17.749889 1.298007 -2.118179 -5.785001 7.162243 -1.171475 18.613542 0.808128 -19.572580 -6.010812 -13.561638 -6.980654 -4.945488 -13.605564 -0.469024 5.718832 12.690824 0.000000 0.000000 0.000000 -1.229655 -18.892663 -6.350734 30.394601 11.332141 -6.892518 -4.321023 -2.771375 32.109269 -1.780272 16.850150 -32.690875 0.000000 0.000000 0.000000 0.241792 0.546664 12.112865 2.448782 0.649590 -1.170970 1.231971 1.267932 -8.711948 -3.158477 0.425563 1.081510 3.694004 -0.078788 3.669081 0.000000 0.000000 0.000000 0.041837 14.617323 10.853787 -69.278380 -3.915615 13.970872 0.546539 -86.764388 0.256734 4.114323 -13.474244 0.122417 4.177925 -13.458553 0.000000 0.000000 0.000000 0.000000 0.000000 0.000000 0.000000 4.796563 -17.582297 4.893099 53.642083 8.433843 7.863110 28.978739 36.610802 0.100733 0.587877 6.011376 0.050125 0.584219 6.013003 0.000000 0.000000 0.000000 0.000000 0.000000 0.000000 0.000000 
